<?xml version="1.0" standalone="no"?>
<!DOCTYPE svg PUBLIC "-//W3C//DTD SVG 20010904//EN"
 "http://www.w3.org/TR/2001/REC-SVG-20010904/DTD/svg10.dtd">
<svg version="1.0" xmlns="http://www.w3.org/2000/svg"
 width="500.000000pt" height="499.000000pt" viewBox="0 0 500.000000 499.000000"
 preserveAspectRatio="xMidYMid meet">

<g transform="translate(0.000000,499.000000) scale(0.100000,-0.100000)"
fill="#000000" stroke="none">
<path d="M485 4561 c-11 -5 -29 -19 -40 -31 -19 -20 -20 -39 -23 -246 l-3
-224 1765 0 1766 0 0 215 c0 241 -5 264 -61 284 -38 13 -3372 15 -3404 2z"/>
<path d="M1150 3430 l0 -100 100 0 100 0 0 100 0 100 -100 0 -100 0 0 -100z"/>
<path d="M1570 3430 l0 -100 830 0 830 0 0 100 0 100 -830 0 -830 0 0 -100z"/>
<path d="M1150 3015 l0 -105 100 0 100 0 0 105 0 105 -100 0 -100 0 0 -105z"/>
<path d="M1570 3015 l0 -105 828 2 827 3 0 100 0 100 -827 3 -828 2 0 -105z"/>
<path d="M1150 2600 l0 -100 100 0 100 0 0 100 0 100 -100 0 -100 0 0 -100z"/>
<path d="M1570 2600 l0 -100 540 0 540 0 75 60 c42 32 103 76 138 96 34 20 64
38 66 40 2 2 -302 4 -677 4 l-682 0 0 -100z"/>
<path d="M1150 2180 l0 -100 100 0 100 0 0 100 0 100 -100 0 -100 0 0 -100z"/>
<path d="M1570 2180 l0 -100 401 2 401 3 21 50 c12 28 34 72 49 98 l27 47
-450 0 -449 0 0 -100z"/>
<path d="M3440 1880 c0 -196 0 -200 -25 -236 -29 -43 -33 -109 -10 -154 20
-39 72 -77 116 -85 29 -5 64 -34 184 -155 l148 -148 74 66 73 67 -149 150
c-130 131 -149 155 -155 190 -3 21 -15 52 -26 67 -19 25 -20 42 -20 233 l0
205 -105 0 -105 0 0 -200z"/>
<path d="M1150 1770 l0 -100 100 0 100 0 0 100 0 100 -100 0 -100 0 0 -100z"/>
<path d="M1570 1770 l0 -100 359 0 358 0 7 86 c4 47 10 92 13 100 4 12 -48 14
-366 14 l-371 0 0 -100z"/>
</g>
</svg>
